<?xml version="1.0" encoding="UTF-8" standalone="no"?>
<!-- Created with Inkscape (http://www.inkscape.org/) -->

<svg
   width="118.72047mm"
   height="57.919697mm"
   viewBox="0 0 118.72047 57.919697"
   version="1.1"
   id="svg5"
   inkscape:version="1.1.1 (3bf5ae0d25, 2021-09-20)"
   sodipodi:docname="bhop logotype.svg"
   inkscape:export-filename="C:\Users\Dagga\website resources\bhop logotype.png"
   inkscape:export-xdpi="307.93158"
   inkscape:export-ydpi="307.93158"
   xmlns:inkscape="http://www.inkscape.org/namespaces/inkscape"
   xmlns:sodipodi="http://sodipodi.sourceforge.net/DTD/sodipodi-0.dtd"
   xmlns:xlink="http://www.w3.org/1999/xlink"
   xmlns="http://www.w3.org/2000/svg"
   xmlns:svg="http://www.w3.org/2000/svg">
  <sodipodi:namedview
     id="namedview7"
     pagecolor="#ffffff"
     bordercolor="#cc0000"
     borderopacity="1"
     inkscape:pageshadow="2"
     inkscape:pageopacity="0.0"
     inkscape:pagecheckerboard="true"
     inkscape:document-units="mm"
     showgrid="false"
     inkscape:zoom="1"
     inkscape:cx="209"
     inkscape:cy="105.5"
     inkscape:window-width="1366"
     inkscape:window-height="745"
     inkscape:window-x="-8"
     inkscape:window-y="-8"
     inkscape:window-maximized="1"
     inkscape:current-layer="layer2"
     fit-margin-top="1"
     fit-margin-left="1"
     fit-margin-right="1"
     fit-margin-bottom="1"
     showborder="true"
     borderlayer="false"
     inkscape:showpageshadow="false"
     showguides="false"
     lock-margins="true" />
  <defs
     id="defs2">
    <linearGradient
       inkscape:collect="always"
       id="linearGradient99666">
      <stop
         style="stop-color:#822e24;stop-opacity:1"
         offset="0"
         id="stop99662" />
      <stop
         style="stop-color:#400426;stop-opacity:1"
         offset="1"
         id="stop99664" />
    </linearGradient>
    <linearGradient
       inkscape:collect="always"
       id="linearGradient86134">
      <stop
         style="stop-color:#ffffff;stop-opacity:1"
         offset="0"
         id="stop86130" />
      <stop
         style="stop-color:#c8913e;stop-opacity:1"
         offset="1"
         id="stop86132" />
    </linearGradient>
    <linearGradient
       id="linearGradient80798"
       inkscape:swatch="solid">
      <stop
         style="stop-color:#000000;stop-opacity:1;"
         offset="0"
         id="stop80796" />
    </linearGradient>
    <rect
       x="686.44391"
       y="711.66022"
       width="367.03735"
       height="700.45294"
       id="rect66643" />
    <linearGradient
       inkscape:collect="always"
       xlink:href="#linearGradient86134"
       id="linearGradient86684"
       gradientUnits="userSpaceOnUse"
       x1="120.57108"
       y1="128.92653"
       x2="120.57108"
       y2="174.68942"
       spreadMethod="pad"
       gradientTransform="translate(-5.2059432,16.087234)" />
    <linearGradient
       inkscape:collect="always"
       xlink:href="#linearGradient99666"
       id="linearGradient99668"
       x1="77.162132"
       y1="116.78263"
       x2="77.162132"
       y2="166.83095"
       gradientUnits="userSpaceOnUse"
       gradientTransform="translate(-5.2059432,16.087234)" />
    <linearGradient
       inkscape:collect="always"
       xlink:href="#linearGradient86134"
       id="linearGradient1284"
       gradientUnits="userSpaceOnUse"
       gradientTransform="translate(-5.2059432,16.087234)"
       x1="120.57108"
       y1="128.92653"
       x2="120.57108"
       y2="174.68942"
       spreadMethod="pad" />
    <linearGradient
       inkscape:collect="always"
       xlink:href="#linearGradient99666"
       id="linearGradient1286"
       gradientUnits="userSpaceOnUse"
       gradientTransform="translate(-5.2059432,16.087234)"
       x1="77.162132"
       y1="116.78263"
       x2="77.162132"
       y2="166.83095" />
    <linearGradient
       inkscape:collect="always"
       xlink:href="#linearGradient86134"
       id="linearGradient1331"
       gradientUnits="userSpaceOnUse"
       gradientTransform="translate(-5.2059432,16.087234)"
       x1="120.57108"
       y1="128.92653"
       x2="120.57108"
       y2="174.68942"
       spreadMethod="pad" />
    <linearGradient
       inkscape:collect="always"
       xlink:href="#linearGradient99666"
       id="linearGradient1333"
       gradientUnits="userSpaceOnUse"
       gradientTransform="translate(-5.2059432,16.087234)"
       x1="77.162132"
       y1="116.78263"
       x2="77.162132"
       y2="166.83095" />
    <linearGradient
       inkscape:collect="always"
       xlink:href="#linearGradient86134"
       id="linearGradient1335"
       gradientUnits="userSpaceOnUse"
       gradientTransform="translate(-5.2059432,16.087234)"
       x1="120.57108"
       y1="128.92653"
       x2="120.57108"
       y2="174.68942"
       spreadMethod="pad" />
    <linearGradient
       inkscape:collect="always"
       xlink:href="#linearGradient99666"
       id="linearGradient1337"
       gradientUnits="userSpaceOnUse"
       gradientTransform="translate(-5.2059432,16.087234)"
       x1="77.162132"
       y1="116.78263"
       x2="77.162132"
       y2="166.83095" />
    <linearGradient
       inkscape:collect="always"
       xlink:href="#linearGradient86134"
       id="linearGradient1339"
       gradientUnits="userSpaceOnUse"
       gradientTransform="translate(-5.2059432,16.087234)"
       x1="120.57108"
       y1="128.92653"
       x2="120.57108"
       y2="174.68942"
       spreadMethod="pad" />
    <linearGradient
       inkscape:collect="always"
       xlink:href="#linearGradient99666"
       id="linearGradient1341"
       gradientUnits="userSpaceOnUse"
       gradientTransform="translate(-5.2059432,16.087234)"
       x1="77.162132"
       y1="116.78263"
       x2="77.162132"
       y2="166.83095" />
    <linearGradient
       inkscape:collect="always"
       xlink:href="#linearGradient86134"
       id="linearGradient1343"
       gradientUnits="userSpaceOnUse"
       gradientTransform="translate(-5.2059432,16.087234)"
       x1="120.57108"
       y1="128.92653"
       x2="120.57108"
       y2="174.68942"
       spreadMethod="pad" />
    <linearGradient
       inkscape:collect="always"
       xlink:href="#linearGradient99666"
       id="linearGradient1345"
       gradientUnits="userSpaceOnUse"
       gradientTransform="translate(-5.2059432,16.087234)"
       x1="77.162132"
       y1="116.78263"
       x2="77.162132"
       y2="166.83095" />
  </defs>
  <g
     inkscape:label="text"
     inkscape:groupmode="layer"
     id="layer1"
     transform="translate(-57.86192,-132.53137)"
     style="display:none"
     sodipodi:insensitive="true">
    <text
       xml:space="preserve"
       style="font-style:italic;font-variant:normal;font-weight:bold;font-stretch:normal;font-size:50px;line-height:1;font-family:'Fira Code';-inkscape-font-specification:'Fira Code Bold Italic';letter-spacing:-3.175px;mix-blend-mode:normal;fill:url(#linearGradient86684);fill-opacity:1;stroke:url(#linearGradient99668);stroke-width:5;stroke-linecap:square;stroke-linejoin:miter;stroke-miterlimit:4;stroke-dasharray:none;stroke-opacity:1;paint-order:stroke fill markers"
       x="58.32209"
       y="175.26074"
       id="text40397-9"
       inkscape:export-filename="C:\Users\Dagga\website resources\bhoptext_small_mask.png"
       inkscape:export-xdpi="33.55629"
       inkscape:export-ydpi="33.55629"><tspan
         sodipodi:role="line"
         id="tspan40395-5"
         style="font-style:italic;font-variant:normal;font-weight:bold;font-stretch:normal;font-size:50px;font-family:'Fira Code';-inkscape-font-specification:'Fira Code Bold Italic';fill:url(#linearGradient86684);fill-opacity:1;stroke:url(#linearGradient99668);stroke-width:5;stroke-linecap:round;stroke-linejoin:miter;stroke-miterlimit:4;stroke-dasharray:none;stroke-opacity:1;paint-order:stroke fill markers"
         x="58.32209"
         y="175.26074">bhop</tspan></text>
    <text
       xml:space="preserve"
       transform="scale(0.26458333)"
       id="text66641"
       style="font-style:italic;font-weight:bold;font-size:18.8976px;line-height:1.25;font-family:Forte;-inkscape-font-specification:'Forte Bold Italic';white-space:pre;shape-inside:url(#rect66643)" />
  </g>
  <g
     inkscape:groupmode="layer"
     id="layer3"
     inkscape:label="palette"
     style="display:none"
     transform="translate(-11.482262,-7.8424886)">
    <g
       id="g1390"
       transform="translate(3.2887004,3.0507301)">
      <rect
         style="display:inline;fill:#822e24;fill-opacity:1;stroke:none;stroke-width:4.22183;stroke-linecap:square;stroke-linejoin:miter;stroke-miterlimit:4;stroke-dasharray:none;stroke-opacity:1;paint-order:stroke fill markers"
         id="rect131045"
         width="12"
         height="12"
         x="55.553795"
         y="21.75161" />
      <rect
         style="display:inline;fill:#400426;fill-opacity:1;stroke:none;stroke-width:4.22183;stroke-linecap:square;stroke-linejoin:miter;stroke-miterlimit:4;stroke-dasharray:none;stroke-opacity:1;paint-order:stroke fill markers"
         id="rect131045-6"
         width="12"
         height="12"
         x="55.553795"
         y="33.751606" />
      <rect
         style="display:inline;fill:#ffffff;fill-opacity:1;stroke:none;stroke-width:4.22183;stroke-linecap:square;stroke-linejoin:miter;stroke-miterlimit:4;stroke-dasharray:none;stroke-opacity:1;paint-order:stroke fill markers"
         id="rect131045-6-3"
         width="12"
         height="12"
         x="67.553795"
         y="21.751608" />
      <rect
         style="display:inline;fill:#c8913e;fill-opacity:1;stroke:none;stroke-width:4.22183;stroke-linecap:square;stroke-linejoin:miter;stroke-miterlimit:4;stroke-dasharray:none;stroke-opacity:1;paint-order:stroke fill markers"
         id="rect131045-6-5"
         width="12"
         height="12"
         x="67.553795"
         y="33.751606" />
    </g>
  </g>
  <g
     inkscape:groupmode="layer"
     id="layer2"
     inkscape:label="vectorized 1"
     style="display:inline"
     transform="translate(-11.482262,-7.8424886)">
    <g
       aria-label="bhop"
       transform="translate(-46.379659,-124.68888)"
       id="text1157"
       style="font-style:italic;font-weight:bold;font-size:50px;line-height:1;font-family:'Fira Code';-inkscape-font-specification:'Fira Code Bold Italic';letter-spacing:-3.175px;display:inline;fill:url(#linearGradient1284);stroke:url(#linearGradient1286);stroke-width:5;stroke-linecap:butt;paint-order:stroke fill markers;stroke-linejoin:miter;fill-rule:nonzero">
      <path
         d="m 74.911834,150.82484 q 1.615384,-1.6923 3.615384,-2.6923 2,-1 4.076923,-1 5.256411,0 6.871795,3.89743 1.641026,3.89744 0.307693,10.53846 -0.846154,4.20513 -2.74359,7.51283 -1.897436,3.28205 -4.717949,5.17948 -2.820513,1.8718 -6.358974,1.8718 -4.282051,0 -6.076923,-3.33334 l -0.794872,2.46154 h -7.179487 l 7.615384,-38.05128 8.256411,-0.84615 z m 0.102564,19.41026 q 2.153846,0 3.794872,-1.97436 1.666666,-2 2.589743,-6.58974 0.666667,-3.38462 0.512821,-5.23077 -0.153846,-1.8718 -0.974359,-2.58974 -0.794872,-0.74359 -2.076923,-0.74359 -1.358975,0 -2.615385,0.84615 -1.230769,0.84615 -2.435897,2.30769 l -2.282052,11.48718 q 0.512821,1.20513 1.333334,1.84616 0.820513,0.64102 2.153846,0.64102 z"
         style="fill:url(#linearGradient1331);stroke:url(#linearGradient1333);stroke-linecap:butt;stroke-linejoin:miter;fill-rule:nonzero"
         id="path1288" />
      <path
         d="m 105.37779,136.41459 -2.8718,14.30769 q 4.12821,-3.58974 8.71795,-3.58974 3.64103,0 5.12821,2.1282 1.51282,2.12821 0.74359,6 l -4,20 h -8.10257 l 3.53846,-17.74359 q 0.51282,-2.46154 0.15385,-3.43589 -0.35898,-0.97436 -1.8718,-0.97436 -1.28205,0 -2.64102,0.89743 -1.33333,0.8718 -2.79487,2.41026 l -3.769234,18.84615 h -8.102564 l 7.615385,-38.05128 z"
         style="fill:url(#linearGradient1335);stroke:url(#linearGradient1337);stroke-linecap:butt;stroke-linejoin:miter;fill-rule:nonzero"
         id="path1290" />
      <path
         d="m 134.51041,147.13254 q 4.20512,0 6.79487,1.79487 2.58974,1.79487 3.51282,5.05128 0.92308,3.23077 0.0513,7.58974 -1.35897,6.82052 -5.64102,10.69231 -4.25642,3.8718 -10.51283,3.8718 -6.25641,0 -8.97435,-3.82052 -2.71795,-3.82051 -1.35898,-10.6923 0.8718,-4.33334 3.10257,-7.58975 2.23076,-3.25641 5.53846,-5.07692 3.33333,-1.82051 7.48718,-1.82051 z m -1.17949,5.97436 q -2.48718,0 -4.10256,2.05128 -1.58975,2.02564 -2.48718,6.46154 -0.89744,4.51282 -0.10257,6.53846 0.79487,2.02564 3.28205,2.02564 2.48718,0 4.07693,-2.02564 1.58974,-2.02564 2.51282,-6.58975 0.87179,-4.41025 0.0769,-6.43589 -0.76923,-2.02564 -3.25641,-2.02564 z"
         style="fill:url(#linearGradient1339);stroke:url(#linearGradient1341);stroke-linecap:butt;stroke-linejoin:miter;fill-rule:nonzero"
         id="path1292" />
      <path
         d="m 165.38661,147.13254 q 3.5641,0 5.38462,1.76923 1.84615,1.76923 2.20513,5 0.35897,3.23077 -0.51282,7.66666 -0.84616,4.20513 -2.74359,7.51283 -1.8718,3.28205 -4.58975,5.17948 -2.71795,1.8718 -6.05128,1.8718 -3.97436,0 -5.89744,-2.84616 l -2.48718,12.48718 -8.28205,0.84616 7.71795,-38.58975 h 7.17949 l -0.23077,3.05129 q 2.07692,-2.12821 4.23077,-3.02565 2.15385,-0.92307 4.07692,-0.92307 z m -3.69231,5.97436 q -1.41025,0 -2.66666,0.84615 -1.23077,0.84615 -2.4359,2.30769 l -2.28205,11.48718 q 0.58974,1.25641 1.41026,1.84616 0.82051,0.58974 2.10256,0.58974 2.15385,0 3.74359,-1.94872 1.58974,-1.97436 2.51282,-6.5641 0.66667,-3.38462 0.53846,-5.23077 -0.10256,-1.8718 -0.87179,-2.58974 -0.76923,-0.74359 -2.05129,-0.74359 z"
         style="fill:url(#linearGradient1343);stroke:url(#linearGradient1345);stroke-linecap:butt;stroke-linejoin:miter;fill-rule:nonzero"
         id="path1294" />
    </g>
  </g>
</svg>
